<svg xmlns="http://www.w3.org/2000/svg" fill="none" viewBox="0 0 113 73" height="73" width="113">
<g clip-path="url(#clip0_639_312)">
<path stroke-linejoin="round" stroke-linecap="round" stroke-width="0.762633" stroke="#231F20" d="M73.1261 45.5991L78.661 38.5219L74.7193 36.8109C74.4299 36.6709 74.103 36.4882 73.7573 36.2471C73.2952 35.9204 72.9344 35.5782 72.6601 35.2788C71.4765 34.4117 69.4136 33.1323 66.5729 32.4596C63.4879 31.7285 60.9064 32.0435 59.4447 32.339C57.7576 32.5918 56.0329 32.8251 54.2631 33.0351C51.3284 33.3851 48.4801 33.6495 45.7334 33.84C45.7334 33.84 43.3849 33.7195 43.8508 35.6988C43.8508 35.6988 43.7043 37.437 46.4285 37.3164C46.4285 37.3164 58.6594 37.1648 59.6138 37.9153C59.6138 37.9153 61.8458 38.5452 59.6702 38.9341C58.8473 38.7863 57.6148 38.5919 56.108 38.448C55.4091 38.3819 54.3532 38.3002 51.2645 38.2458C50.002 38.2225 48.3035 38.203 46.2782 38.2108C46.1617 38.2264 44.4746 38.4052 43.4976 37.122C43.0166 36.492 42.934 35.8038 42.9152 35.481C42.8926 34.9172 43.0354 34.5166 43.1481 34.2794C43.6329 33.2645 44.8391 32.6696 46.2218 32.7201C44.9067 31.5185 43.5953 30.3208 42.2801 29.1193C41.9871 28.9093 41.4084 28.5554 40.6005 28.4271C39.8114 28.2988 39.1726 28.4465 38.8345 28.5515C35.8284 27.8516 34.1863 27.8127 33.9083 28.431C33.7993 28.6721 33.897 29.0104 34.1976 29.4498C35.5729 31.3124 37.2074 33.2917 39.1351 35.2788C43.3886 39.6651 47.7136 42.706 51.3134 44.7981C52.0047 45.0197 52.8915 45.2258 53.9324 45.2842C54.5336 45.3192 55.0784 45.2997 55.5594 45.2531C57.194 44.8564 58.96 44.4948 60.8463 44.1915C62.5823 43.9115 64.2319 43.7132 65.7875 43.5771C66.2835 43.476 67.035 43.3865 67.9331 43.5187C68.9401 43.6665 69.7029 44.032 70.1651 44.3003C70.1651 44.3003 72.7165 45.5291 73.1223 45.5914L73.1261 45.5991Z"></path>
<path stroke-linejoin="round" stroke-linecap="round" stroke-width="0.762633" stroke="#231F20" d="M39.3041 29.582L42.5506 32.7318"></path>
<path stroke-linejoin="round" stroke-linecap="round" stroke-width="0.678743" stroke="#231F20" d="M60.7712 6.02148C61.3574 6.31702 61.9023 6.65921 62.4246 7.05974H62.4321"></path>
<path stroke-linejoin="round" stroke-linecap="round" stroke-width="0.678743" stroke="#231F20" d="M51.7679 6.02148C51.1817 6.31702 50.6218 6.65921 50.1071 7.05974"></path>
<path stroke-linejoin="round" stroke-linecap="round" stroke-width="0.678743" stroke="#231F20" d="M65.581 10.8896C66.3024 12.3556 66.7045 14.0161 66.7045 15.7698C66.7045 21.7311 62.0301 26.5685 56.2697 26.5685C50.5093 26.5685 45.8274 21.7311 45.8274 15.7698C45.8274 14.0161 46.2295 12.3556 46.9584 10.8896"></path>
<path stroke-linejoin="round" stroke-linecap="round" stroke-width="0.678743" stroke="#231F20" d="M56.2659 10.1825C58.7686 10.1825 60.7975 8.08289 60.7975 5.49287C60.7975 2.90285 58.7686 0.803223 56.2659 0.803223C53.7631 0.803223 51.7343 2.90285 51.7343 5.49287C51.7343 8.08289 53.7631 10.1825 56.2659 10.1825Z"></path>
<path stroke-linejoin="round" stroke-linecap="round" stroke-width="0.678743" stroke="#231F20" d="M64.2507 11.2943C65.6058 11.2943 66.7044 10.1575 66.7044 8.75507C66.7044 7.35268 65.6058 6.21582 64.2507 6.21582C62.8956 6.21582 61.797 7.35268 61.797 8.75507C61.797 10.1575 62.8956 11.2943 64.2507 11.2943Z"></path>
<path stroke-linejoin="round" stroke-linecap="round" stroke-width="0.678743" stroke="#231F20" d="M48.285 11.2943C49.6401 11.2943 50.7387 10.1575 50.7387 8.75507C50.7387 7.35268 49.6401 6.21582 48.285 6.21582C46.9299 6.21582 45.8313 7.35268 45.8313 8.75507C45.8313 10.1575 46.9299 11.2943 48.285 11.2943Z"></path>
</g>
<path fill="#4A4947" d="M7.50927 69.1177H6.56723L9.96114 59.878H11.1096L14.5423 69.1177H13.5744L12.6711 66.6658H8.41259L7.50927 69.1177ZM10.4128 61.1814L8.69649 65.8528H12.3743L10.6451 61.1814C10.6064 61.0523 10.5418 60.8975 10.5289 60.8071C10.516 60.8846 10.4644 61.0523 10.4128 61.1814ZM14.8859 62.8719H15.8408V61.6588C15.8408 60.2522 16.6022 59.7102 17.57 59.7102C17.7894 59.7102 18.0475 59.7231 18.2539 59.7619V60.5361H17.712C16.9377 60.5361 16.7312 60.9233 16.7312 61.6588V62.8719H19.6993V61.6588C19.6993 60.2522 20.4735 59.7102 21.4285 59.7102C21.6479 59.7102 21.9059 59.7231 22.1124 59.7619V60.5361H21.5833C20.7962 60.5361 20.5897 60.9233 20.5897 61.6588V62.8719H22.0608V63.6203H20.5897V69.1177H19.6993V63.6203H16.7312V69.1177H15.8408V63.6203H14.8859V62.8719ZM22.6422 65.9948C22.6422 64.0849 23.9843 62.7041 25.8167 62.7041C27.6492 62.7041 28.9913 64.0849 28.9913 65.9948C28.9913 67.8917 27.6492 69.2725 25.8167 69.2725C23.9843 69.2725 22.6422 67.8917 22.6422 65.9948ZM23.5455 65.9819C23.5455 67.453 24.4747 68.4724 25.8167 68.4724C27.1459 68.4724 28.0879 67.453 28.0879 65.9819C28.0879 64.5365 27.1459 63.5042 25.8167 63.5042C24.4747 63.5042 23.5455 64.5365 23.5455 65.9819ZM33.6803 62.7944V63.5945H33.1899C32.0414 63.5945 31.3058 64.3688 31.3058 65.556V69.1177H30.4154V62.8719H31.2542L31.3187 63.8397C31.5639 63.1687 32.2221 62.7299 33.0996 62.7299C33.2931 62.7299 33.4609 62.7428 33.6803 62.7944ZM37.0764 69.2725C35.2568 69.2725 34.1858 67.8788 34.1858 66.0077C34.1858 64.1236 35.2568 62.7041 37.1151 62.7041C38.1475 62.7041 38.9734 63.1558 39.4121 64.0591V59.7102H40.3025V69.1177H39.5283L39.4379 67.8401C38.9992 68.808 38.1217 69.2725 37.0764 69.2725ZM37.2312 68.4595C38.5991 68.4595 39.3992 67.4272 39.3992 65.9819C39.3992 64.5495 38.5991 63.5042 37.2312 63.5042C35.8763 63.5042 35.0891 64.5495 35.0891 65.9819C35.0891 67.4272 35.8763 68.4595 37.2312 68.4595ZM43.9543 69.2725C42.6252 69.2725 41.838 68.5241 41.838 67.4272C41.838 66.2787 42.7155 65.556 44.1737 65.4399L46.2384 65.2721V65.0656C46.2384 63.8397 45.5029 63.4526 44.5867 63.4526C43.5027 63.4526 42.8574 63.9429 42.8574 64.7817H42.0445C42.0445 63.5171 43.0768 62.7041 44.6125 62.7041C46.0578 62.7041 47.116 63.4268 47.116 65.0785V69.1177H46.3675L46.2514 68.0208C45.8642 68.808 45.0125 69.2725 43.9543 69.2725ZM44.1608 68.5499C45.4771 68.5499 46.2384 67.6336 46.2384 66.2787V65.9431L44.3931 66.0851C43.2188 66.1883 42.7413 66.7045 42.7413 67.4014C42.7413 68.1627 43.3091 68.5499 44.1608 68.5499ZM49.677 69.1177H48.9027V59.7102H49.7932V64.0849C50.2319 63.1687 51.0836 62.7041 52.1418 62.7041C53.9613 62.7041 55.0195 64.1236 55.0195 66.0077C55.0195 67.8788 53.9355 69.2725 52.116 69.2725C51.0707 69.2725 50.2061 68.808 49.7673 67.8401L49.677 69.1177ZM49.8061 65.9819C49.8061 67.4272 50.6061 68.4595 51.974 68.4595C53.329 68.4595 54.1162 67.4272 54.1162 65.9819C54.1162 64.5495 53.329 63.5042 51.974 63.5042C50.6061 63.5042 49.8061 64.5495 49.8061 65.9819ZM57.3679 69.1177H56.4775V59.7102H57.3679V69.1177ZM61.8813 69.2725C60.0489 69.2725 58.8229 67.9563 58.8229 65.9948C58.8229 64.0462 60.036 62.7041 61.8168 62.7041C63.5073 62.7041 64.6558 63.9042 64.6558 65.6722V66.1109H59.6875C59.7521 67.6336 60.5522 68.5112 61.8942 68.5112C62.9137 68.5112 63.5718 68.0724 63.8041 67.2465H64.6558C64.3203 68.5628 63.3524 69.2725 61.8813 69.2725ZM61.8168 63.4655C60.6425 63.4655 59.8682 64.2397 59.7134 65.4657H63.7654C63.7654 64.2656 62.9911 63.4655 61.8168 63.4655ZM70.7812 59.878V68.266H75.0268V69.1177H69.852V59.878H70.7812ZM80.6117 62.8719H81.5021V69.1177H80.7279L80.6117 68.0595C80.2633 68.7822 79.3987 69.2725 78.4179 69.2725C76.9468 69.2725 76.1467 68.266 76.1467 66.7432V62.859H77.0501V66.4593C77.0501 67.9434 77.7082 68.4724 78.7018 68.4724C79.902 68.4724 80.6117 67.6724 80.6117 66.1883V62.8719ZM83.6022 69.1177H82.5569L84.7894 65.9948L82.5698 62.8719H83.6151L85.383 65.3753L87.138 62.8719H88.1704L85.9508 66.0077L88.1575 69.1177H87.0993L85.3443 66.6142L83.6022 69.1177ZM93.6171 62.8719H94.5075V69.1177H93.7333L93.6171 68.0595C93.2687 68.7822 92.4041 69.2725 91.4233 69.2725C89.9522 69.2725 89.1521 68.266 89.1521 66.7432V62.859H90.0555V66.4593C90.0555 67.9434 90.7136 68.4724 91.7072 68.4724C92.9074 68.4724 93.6171 67.6724 93.6171 66.1883V62.8719ZM99.6272 62.7944V63.5945H99.1369C97.9884 63.5945 97.2528 64.3688 97.2528 65.556V69.1177H96.3624V62.8719H97.2012L97.2657 63.8397C97.5109 63.1687 98.169 62.7299 99.0465 62.7299C99.2401 62.7299 99.4079 62.7428 99.6272 62.7944ZM100.368 71.8405V71.105H101.052C101.594 71.105 102.136 71.0663 102.445 70.2275L102.716 69.4919L100.187 62.8719H101.129L103.142 68.3176L105.117 62.8719H106.033L103.168 70.5501C102.807 71.5308 102.2 71.9309 101.31 71.9309C100.935 71.9309 100.652 71.9051 100.368 71.8405Z"></path>
<defs>
<clipPath id="clip0_639_312">
<rect transform="translate(33.6827 0.62793)" fill="white" height="45.166" width="45.166"></rect>
</clipPath>
</defs>
</svg>
