<svg xmlns="http://www.w3.org/2000/svg" fill="none" viewBox="0 0 152 72" height="72" width="152">
<g clip-path="url(#clip0_639_322)">
<path stroke-miterlimit="10" stroke-width="0.762633" stroke="black" d="M69.5931 31.6827H58.7297L62.442 25.3149L66.3497 27.567L60.9961 16.4233L48.5696 17.394L52.4773 19.6461L50.6798 22.7135C49.4684 24.8102 49.3902 27.4116 50.5625 29.5472L56.3069 40.3802C57.1275 41.9721 58.7297 43.0981 60.8008 43.0981H69.5931V31.6827Z"></path>
<path stroke-miterlimit="10" stroke-width="0.762633" stroke="black" d="M56.346 40.3417C55.6036 38.9051 55.5645 37.1578 56.4633 35.6047L58.7297 31.6831H69.5932V43.0597H60.8008C58.7688 43.0597 57.1276 41.8949 56.3069 40.3029L56.346 40.3417Z"></path>
<path stroke-miterlimit="10" stroke-width="0.762633" stroke="black" d="M69.2411 16.0744L74.3212 6.52275L78.268 12.7352L74.4384 15.1037L86.865 15.6085L91.7887 4.27073L87.9591 6.67806L86.0834 3.68831C84.7939 1.63043 82.5274 0.387932 80.0655 0.387932H67.7562C65.9586 0.349105 64.1611 1.24215 63.2232 3.02823L59.1201 10.755L69.2802 16.0744H69.2411Z"></path>
<path stroke-miterlimit="10" stroke-width="0.762633" stroke="black" d="M67.7562 0.388184C69.3584 0.388184 70.9605 1.20357 71.8984 2.71786L74.3212 6.56183L69.2411 16.1135L59.0811 10.7941L63.1842 3.06731C64.122 1.28123 65.9196 0.388184 67.7171 0.427012L67.7562 0.388184Z"></path>
<path stroke-miterlimit="10" stroke-width="0.762633" stroke="black" d="M89.9131 43.0989L76.8613 31.1787L81.6678 24.3838H97.963L102.809 31.1787L89.9522 43.0989H89.9131Z"></path>
<path stroke-miterlimit="10" stroke-width="0.762633" stroke="black" d="M87.0995 24.3838L84.9111 31.1787L89.913 43.0989L94.7977 31.1787L92.5312 24.3838"></path>
<path stroke-miterlimit="10" stroke-width="0.762633" stroke="black" d="M76.8613 31.1406H102.809"></path>
</g>
<path fill="#4A4947" d="M36.6222 67.1992H31.0861V57.9595H36.6092V58.8112H32.0152V62.1406H36.1834V62.9794H32.0152V66.3475H36.6222V67.1992ZM39.7476 67.1992H38.8701V61.7019H37.6183V60.9534H38.8701V58.979H39.7476V60.9534H40.9993V61.7019H39.7476V67.1992ZM43.0492 67.1863H42.1588V57.7918H43.0492V62.0374C43.4493 61.2889 44.2107 60.7856 45.2559 60.7856C46.8948 60.7856 47.6304 61.8051 47.6304 63.3795V67.1992H46.74V63.573C46.74 62.1148 46.056 61.5986 45.0882 61.5986C43.7461 61.5986 43.0492 62.5923 43.0492 63.7924V67.1863ZM49.8438 59.2371C49.4825 59.2371 49.1857 58.9403 49.1857 58.579C49.1857 58.2176 49.4825 57.9079 49.8438 57.9079C50.2051 57.9079 50.5148 58.2176 50.5148 58.579C50.5148 58.9403 50.2051 59.2371 49.8438 59.2371ZM49.4051 67.1992V60.9534H50.2955V67.1992H49.4051ZM51.7136 64.0892C51.7136 62.1277 52.9137 60.7856 54.7332 60.7856C56.1785 60.7856 57.2367 61.6244 57.4819 62.9149H56.5915C56.3592 62.0503 55.6107 61.5728 54.7461 61.5728C53.4815 61.5728 52.5911 62.5407 52.5911 64.0763C52.5911 65.5603 53.417 66.554 54.6816 66.554C55.6107 66.554 56.3592 66.0378 56.6044 65.2377H57.5077C57.2109 66.5153 56.1011 67.3541 54.6816 67.3541C52.9137 67.3541 51.7136 66.0507 51.7136 64.0892ZM60.6504 67.3541C59.3212 67.3541 58.534 66.6056 58.534 65.5087C58.534 64.3602 59.4115 63.6376 60.8698 63.5214L62.9345 63.3537V63.1472C62.9345 61.9212 62.1989 61.5341 61.2827 61.5341C60.1987 61.5341 59.5535 62.0245 59.5535 62.8633H58.7405C58.7405 61.5986 59.7729 60.7856 61.3085 60.7856C62.7538 60.7856 63.812 61.5083 63.812 63.1601V67.1992H63.0635L62.9474 66.1023C62.5603 66.8895 61.7086 67.3541 60.6504 67.3541ZM60.8569 66.6314C62.1731 66.6314 62.9345 65.7152 62.9345 64.3602V64.0247L61.0891 64.1666C59.9148 64.2699 59.4374 64.7861 59.4374 65.4829C59.4374 66.2443 60.0052 66.6314 60.8569 66.6314ZM66.5279 67.1992H65.6375V57.7918H66.5279V67.1992ZM71.6394 60.3598C71.6394 58.8112 72.8782 57.7918 74.7365 57.7918C76.4011 57.7918 77.498 58.7209 77.64 60.2695H76.6979C76.5947 59.2242 75.885 58.6306 74.7235 58.6306C73.4202 58.6306 72.5685 59.3016 72.5685 60.3469C72.5685 61.1599 73.0459 61.6761 74.0138 61.9212L75.6011 62.3084C77.0464 62.6568 77.7948 63.4827 77.7948 64.7344C77.7948 66.3346 76.556 67.3541 74.6461 67.3541C72.8524 67.3541 71.6394 66.412 71.5232 64.9022H72.4781C72.5298 65.87 73.3815 66.5024 74.6461 66.5024C76.0011 66.5024 76.8657 65.8442 76.8657 64.7861C76.8657 63.9602 76.4011 63.4182 75.4075 63.1859L73.846 62.7988C72.4007 62.4503 71.6394 61.6244 71.6394 60.3598ZM78.8333 64.0763C78.8333 62.1664 80.1754 60.7856 82.0079 60.7856C83.8403 60.7856 85.1824 62.1664 85.1824 64.0763C85.1824 65.9733 83.8403 67.3541 82.0079 67.3541C80.1754 67.3541 78.8333 65.9733 78.8333 64.0763ZM79.7367 64.0634C79.7367 65.5345 80.6658 66.554 82.0079 66.554C83.337 66.554 84.2791 65.5345 84.2791 64.0634C84.2791 62.6181 83.337 61.5857 82.0079 61.5857C80.6658 61.5857 79.7367 62.6181 79.7367 64.0634ZM90.8429 60.9534H91.7333V67.1992H90.959L90.8429 66.141C90.4945 66.8637 89.6298 67.3541 88.6491 67.3541C87.178 67.3541 86.3779 66.3475 86.3779 64.8248V60.9405H87.2812V64.5409C87.2812 66.0249 87.9393 66.554 88.933 66.554C90.1331 66.554 90.8429 65.7539 90.8429 64.2699V60.9534ZM96.853 60.876V61.6761H96.3626C95.2141 61.6761 94.4785 62.4503 94.4785 63.6376V67.1992H93.5881V60.9534H94.4269L94.4914 61.9212C94.7366 61.2502 95.3948 60.8114 96.2723 60.8114C96.4658 60.8114 96.6336 60.8244 96.853 60.876ZM97.3585 64.0892C97.3585 62.1277 98.5586 60.7856 100.378 60.7856C101.823 60.7856 102.882 61.6244 103.127 62.9149H102.236C102.004 62.0503 101.256 61.5728 100.391 61.5728C99.1264 61.5728 98.236 62.5407 98.236 64.0763C98.236 65.5603 99.0619 66.554 100.327 66.554C101.256 66.554 102.004 66.0378 102.249 65.2377H103.153C102.856 66.5153 101.746 67.3541 100.327 67.3541C98.5586 67.3541 97.3585 66.0507 97.3585 64.0892ZM104.94 59.2371C104.579 59.2371 104.282 58.9403 104.282 58.579C104.282 58.2176 104.579 57.9079 104.94 57.9079C105.302 57.9079 105.611 58.2176 105.611 58.579C105.611 58.9403 105.302 59.2371 104.94 59.2371ZM104.502 67.1992V60.9534H105.392V67.1992H104.502ZM108.139 67.1992H107.249V60.9534H108.023L108.152 62.0374C108.565 61.2373 109.391 60.7856 110.294 60.7856C112.011 60.7856 112.72 61.8051 112.72 63.3795V67.1992H111.83V63.573C111.83 62.1148 111.172 61.5986 110.139 61.5986C108.862 61.5986 108.139 62.5278 108.139 63.9344V67.1992ZM114.069 63.8956C114.069 62.1922 115.166 60.7856 116.999 60.7856C118.083 60.7856 118.908 61.2889 119.308 62.2051L119.399 60.9534H120.173V67.0056C120.173 68.8639 118.986 70.0769 117.153 70.0769C115.553 70.0769 114.431 69.1736 114.185 67.6638H115.076C115.269 68.6703 116.044 69.264 117.166 69.264C118.444 69.264 119.296 68.3993 119.296 67.096V65.612C118.87 66.4895 118.005 67.0056 116.934 67.0056C115.153 67.0056 114.069 65.5991 114.069 63.8956ZM114.96 63.8827C114.96 65.1603 115.747 66.2056 117.063 66.2056C118.418 66.2056 119.218 65.2248 119.218 63.8827C119.218 62.5536 118.444 61.5728 117.076 61.5728C115.734 61.5728 114.96 62.6181 114.96 63.8827Z"></path>
<defs>
<clipPath id="clip0_639_322">
<rect transform="translate(47.788)" fill="white" height="43.8756" width="55.4897"></rect>
</clipPath>
</defs>
</svg>
