<svg xmlns="http://www.w3.org/2000/svg" fill="none" viewBox="0 0 135 79" height="79" width="135">
<g clip-path="url(#clip0_639_345)">
<path stroke-miterlimit="10" stroke-width="0.762633" stroke="black" d="M71.3529 19.6712L64.2084 20.9781C63.7195 21.055 63.3811 20.4784 63.7195 20.094L68.4199 14.4435C69.2095 13.4825 70.1872 12.6368 71.2777 11.9833L89.703 1.10506C91.4328 0.105638 93.6137 0.682226 94.629 2.45043C95.6067 4.21863 95.0426 6.4481 93.3129 7.48596L74.8875 18.3643C73.7971 19.0177 72.5938 19.4405 71.3905 19.6712H71.3529Z"></path>
<path stroke-miterlimit="10" stroke-width="0.762633" stroke="black" d="M94.0274 1.68262C95.4187 3.10487 95.4187 5.44966 94.0274 6.87191L78.9863 22.2476C78.0839 23.1701 77.0686 23.9005 75.9405 24.4386L69.3976 27.5906C68.9464 27.8213 68.4576 27.3216 68.6832 26.8603L70.9017 22.0169"></path>
<path stroke-miterlimit="10" stroke-width="0.762633" stroke="black" d="M54.1686 43.427L43.2638 33.2021L47.2873 27.3594H60.8619L64.8854 33.2021L54.131 43.427H54.1686Z"></path>
<path stroke-miterlimit="10" stroke-width="0.762633" stroke="black" d="M51.837 27.3594L49.9945 33.2021L54.1684 43.427L58.2295 33.2021L56.3494 27.3594"></path>
<path stroke-miterlimit="10" stroke-width="0.762633" stroke="black" d="M43.3011 33.1641H64.9227"></path>
<path stroke-miterlimit="10" stroke-width="0.762633" stroke="black" d="M38.9019 54.4204C41.1956 48.001 47.2121 43.4268 54.2814 43.4268C61.3507 43.4268 67.3671 48.001 69.6609 54.4204"></path>
<path stroke-miterlimit="10" stroke-width="0.762633" stroke="black" d="M44.2037 54.4207C46.1591 50.8074 49.957 48.3857 54.2813 48.3857C58.6056 48.3857 62.3659 50.8074 64.3588 54.4207"></path>
<path stroke-miterlimit="10" stroke-width="0.762633" stroke="black" d="M47.3247 19.5176V22.2468"></path>
<path stroke-miterlimit="10" stroke-width="0.762633" stroke="black" d="M39.4658 27.5518H42.1356"></path>
<path stroke-miterlimit="10" stroke-width="0.762633" stroke="black" d="M41.7596 21.8623L43.6774 23.7843"></path>
</g>
<path fill="#4A4947" d="M2.37696 74.0654H1.44783V64.8257H2.37696V68.9423H7.37103V64.8257H8.28726V74.0654H7.37103V69.8069H2.37696V74.0654ZM12.1467 74.2203C10.8176 74.2203 10.0304 73.4718 10.0304 72.3749C10.0304 71.2264 10.9079 70.5038 12.3661 70.3876L14.4308 70.2199V70.0134C14.4308 68.7875 13.6953 68.4003 12.7791 68.4003C11.6951 68.4003 11.0498 68.8907 11.0498 69.7295H10.2369C10.2369 68.4648 11.2692 67.6519 12.8049 67.6519C14.2502 67.6519 15.3084 68.3745 15.3084 70.0263V74.0654H14.5599L14.4437 72.9685C14.0566 73.7557 13.2049 74.2203 12.1467 74.2203ZM12.3532 73.4976C13.6695 73.4976 14.4308 72.5814 14.4308 71.2264V70.8909L12.5855 71.0329C11.4112 71.1361 10.9337 71.6523 10.9337 72.3491C10.9337 73.1105 11.5015 73.4976 12.3532 73.4976ZM17.9856 74.0654H17.0951V67.8196H17.8694L17.9985 68.9036C18.4114 68.1035 19.2373 67.6519 20.1406 67.6519C21.8569 67.6519 22.5667 68.6713 22.5667 70.2457V74.0654H21.6763V70.4392C21.6763 68.981 21.0181 68.4648 19.9858 68.4648C18.7082 68.4648 17.9856 69.394 17.9856 70.8006V74.0654ZM26.7932 74.2203C24.9737 74.2203 23.9026 72.8266 23.9026 70.9554C23.9026 69.0714 24.9737 67.6519 26.8319 67.6519C27.8643 67.6519 28.6902 68.1035 29.129 69.0068V64.658H30.0194V74.0654H29.2451L29.1548 72.7879C28.716 73.7557 27.8385 74.2203 26.7932 74.2203ZM26.9481 73.4073C28.316 73.4073 29.1161 72.3749 29.1161 70.9296C29.1161 69.4972 28.316 68.4519 26.9481 68.4519C25.5931 68.4519 24.8059 69.4972 24.8059 70.9296C24.8059 72.3749 25.5931 73.4073 26.9481 73.4073ZM31.4387 70.9554C31.4387 68.9939 32.6388 67.6519 34.4584 67.6519C35.9037 67.6519 36.9618 68.4906 37.207 69.7811H36.3166C36.0843 68.9165 35.3359 68.439 34.4713 68.439C33.2066 68.439 32.3162 69.4069 32.3162 70.9425C32.3162 72.4265 33.1421 73.4202 34.4067 73.4202C35.3359 73.4202 36.0843 72.904 36.3295 72.1039H37.2328C36.936 73.3815 35.8262 74.2203 34.4067 74.2203C32.6388 74.2203 31.4387 72.9169 31.4387 70.9554ZM41.8466 67.7422V68.5423H41.3563C40.2078 68.5423 39.4722 69.3165 39.4722 70.5038V74.0654H38.5818V67.8196H39.4206L39.4851 68.7875C39.7303 68.1164 40.3884 67.6777 41.2659 67.6777C41.4595 67.6777 41.6273 67.6906 41.8466 67.7422ZM44.572 74.2203C43.2429 74.2203 42.4557 73.4718 42.4557 72.3749C42.4557 71.2264 43.3332 70.5038 44.7914 70.3876L46.8561 70.2199V70.0134C46.8561 68.7875 46.1206 68.4003 45.2043 68.4003C44.1204 68.4003 43.4751 68.8907 43.4751 69.7295H42.6621C42.6621 68.4648 43.6945 67.6519 45.2302 67.6519C46.6755 67.6519 47.7336 68.3745 47.7336 70.0263V74.0654H46.9852L46.869 72.9685C46.4819 73.7557 45.6302 74.2203 44.572 74.2203ZM44.7785 73.4976C46.0948 73.4976 46.8561 72.5814 46.8561 71.2264V70.8909L45.0108 71.0329C43.8365 71.1361 43.359 71.6523 43.359 72.3491C43.359 73.1105 43.9268 73.4976 44.7785 73.4976ZM54.6964 74.0654H53.8189V68.5681H50.6185V74.0654H49.7281V68.5681H48.7732V67.8196H49.7281V66.6066C49.7281 65.2 50.4895 64.658 51.4186 64.658C51.638 64.658 51.909 64.6709 52.1155 64.7096V65.4839H51.5735C50.825 65.4839 50.6185 65.871 50.6185 66.6066V67.8196H53.8189V65.8452H54.6964V67.8196H55.9481V68.5681H54.6964V74.0654ZM59.6635 74.2203C57.8311 74.2203 56.6051 72.904 56.6051 70.9425C56.6051 68.9939 57.8182 67.6519 59.599 67.6519C61.2895 67.6519 62.438 68.852 62.438 70.6199V71.0587H57.4698C57.5343 72.5814 58.3344 73.4589 59.6764 73.4589C60.6959 73.4589 61.354 73.0202 61.5863 72.1943H62.438C62.1025 73.5105 61.1347 74.2203 59.6635 74.2203ZM59.599 68.4132C58.4247 68.4132 57.6504 69.1875 57.4956 70.4134H61.5476C61.5476 69.2133 60.7733 68.4132 59.599 68.4132ZM66.3135 74.2203C64.494 74.2203 63.4229 72.8266 63.4229 70.9554C63.4229 69.0714 64.494 67.6519 66.3522 67.6519C67.3846 67.6519 68.2105 68.1035 68.6493 69.0068V64.658H69.5397V74.0654H68.7654L68.6751 72.7879C68.2363 73.7557 67.3588 74.2203 66.3135 74.2203ZM66.4684 73.4073C67.8363 73.4073 68.6363 72.3749 68.6363 70.9296C68.6363 69.4972 67.8363 68.4519 66.4684 68.4519C65.1134 68.4519 64.3262 69.4972 64.3262 70.9296C64.3262 72.3749 65.1134 73.4073 66.4684 73.4073ZM80.7064 74.0654H75.1703V64.8257H80.6935V65.6774H76.0994V69.0068H80.2676V69.8456H76.0994V73.2137H80.7064V74.0654ZM82.6446 74.0654H81.5993L83.8318 70.9425L81.6122 67.8196H82.6575L84.4254 70.3231L86.1804 67.8196H87.2128L84.9932 70.9554L87.1999 74.0654H86.1417L84.3867 71.5619L82.6446 74.0654ZM87.619 70.9554C87.619 68.9939 88.8191 67.6519 90.6387 67.6519C92.084 67.6519 93.1422 68.4906 93.3873 69.7811H92.4969C92.2646 68.9165 91.5162 68.439 90.6516 68.439C89.3869 68.439 88.4965 69.4069 88.4965 70.9425C88.4965 72.4265 89.3224 73.4202 90.587 73.4202C91.5162 73.4202 92.2646 72.904 92.5098 72.1039H93.4131C93.1163 73.3815 92.0065 74.2203 90.587 74.2203C88.8191 74.2203 87.619 72.9169 87.619 70.9554ZM97.3817 74.2203C95.5493 74.2203 94.3233 72.904 94.3233 70.9425C94.3233 68.9939 95.5364 67.6519 97.3172 67.6519C99.0077 67.6519 100.156 68.852 100.156 70.6199V71.0587H95.1879C95.2525 72.5814 96.0525 73.4589 97.3946 73.4589C98.4141 73.4589 99.0722 73.0202 99.3045 72.1943H100.156C99.8207 73.5105 98.8528 74.2203 97.3817 74.2203ZM97.3172 68.4132C96.1429 68.4132 95.3686 69.1875 95.2137 70.4134H99.2658C99.2658 69.2133 98.4915 68.4132 97.3172 68.4132ZM102.509 74.0654H101.619V64.658H102.509V74.0654ZM105.332 74.0654H104.441V64.658H105.332V74.0654ZM109.845 74.2203C108.013 74.2203 106.787 72.904 106.787 70.9425C106.787 68.9939 108 67.6519 109.781 67.6519C111.471 67.6519 112.62 68.852 112.62 70.6199V71.0587H107.651C107.716 72.5814 108.516 73.4589 109.858 73.4589C110.878 73.4589 111.536 73.0202 111.768 72.1943H112.62C112.284 73.5105 111.316 74.2203 109.845 74.2203ZM109.781 68.4132C108.606 68.4132 107.832 69.1875 107.677 70.4134H111.729C111.729 69.2133 110.955 68.4132 109.781 68.4132ZM114.934 74.0654H114.043V67.8196H114.818L114.947 68.9036C115.36 68.1035 116.186 67.6519 117.089 67.6519C118.805 67.6519 119.515 68.6713 119.515 70.2457V74.0654H118.624V70.4392C118.624 68.981 117.966 68.4648 116.934 68.4648C115.656 68.4648 114.934 69.394 114.934 70.8006V74.0654ZM120.851 70.9554C120.851 68.9939 122.051 67.6519 123.87 67.6519C125.316 67.6519 126.374 68.4906 126.619 69.7811H125.729C125.496 68.9165 124.748 68.439 123.883 68.439C122.619 68.439 121.728 69.4069 121.728 70.9425C121.728 72.4265 122.554 73.4202 123.819 73.4202C124.748 73.4202 125.496 72.904 125.742 72.1039H126.645C126.348 73.3815 125.238 74.2203 123.819 74.2203C122.051 74.2203 120.851 72.9169 120.851 70.9554ZM130.614 74.2203C128.781 74.2203 127.555 72.904 127.555 70.9425C127.555 68.9939 128.768 67.6519 130.549 67.6519C132.24 67.6519 133.388 68.852 133.388 70.6199V71.0587H128.42C128.484 72.5814 129.284 73.4589 130.626 73.4589C131.646 73.4589 132.304 73.0202 132.536 72.1943H133.388C133.053 73.5105 132.085 74.2203 130.614 74.2203ZM130.549 68.4132C129.375 68.4132 128.6 69.1875 128.446 70.4134H132.498C132.498 69.2133 131.723 68.4132 130.549 68.4132Z"></path>
<defs>
<clipPath id="clip0_639_345">
<rect transform="translate(38.7137 0.413574)" fill="white" height="54.1992" width="56.7802"></rect>
</clipPath>
</defs>
</svg>
