<svg xmlns="http://www.w3.org/2000/svg" fill="none" viewBox="0 0 121 72" height="72" width="121">
<g clip-path="url(#clip0_639_333)">
<path stroke-miterlimit="10" stroke-width="0.762633" stroke="black" d="M86.6243 31.6129H85.1608C83.2471 31.6129 81.9713 30.6753 80.4703 29.5503C80.1326 29.3253 79.8324 29.0628 79.4947 28.8378C78.1438 27.9003 76.4177 26.9253 73.9412 26.9253C71.4646 26.9253 66.1362 26.9253 66.1362 26.9253C64.8979 26.9253 63.9223 28.0128 64.0723 29.2878C64.2224 30.3378 65.1605 31.0878 66.2112 31.0878C67.412 31.0878 68.988 31.0878 70.9768 31.0878C71.6522 31.0878 72.1025 31.8004 72.1025 32.4379C72.1025 33.0754 71.8773 33.4129 71.427 33.6004C71.277 33.6754 67.4495 34.6879 64.8979 35.3254C63.4344 35.7004 61.896 35.4379 60.6201 34.6504C57.8809 32.8879 53.378 29.8878 53.3405 29.8503C52.4774 29.3628 51.6894 29.4378 51.3893 29.4753C49.8883 29.7003 48.7626 30.8628 48.7626 32.3629C48.7626 33.8629 49.1753 34.1629 49.9633 34.7254C50.5262 35.1379 57.9559 40.0505 61.5958 42.488C62.8716 43.313 64.4101 43.5755 65.8735 43.2005C73.1907 41.3255 80.7705 39.5255 85.0858 39.5255H86.5867"></path>
<path stroke-miterlimit="10" stroke-width="0.762633" stroke="black" d="M33.9406 12.1878H35.404C37.3177 12.1878 38.5935 13.1253 40.0945 14.2503C40.4322 14.4753 40.7324 14.7378 41.0701 14.9628C42.421 15.9003 44.1471 16.8753 46.6237 16.8753C49.1002 16.8753 54.4286 16.8753 54.4286 16.8753C55.6669 16.8753 56.6425 15.7878 56.4925 14.5128C56.3424 13.4628 55.4043 12.7128 54.3536 12.7128C53.1528 12.7128 51.5768 12.7128 49.588 12.7128C48.9126 12.7128 48.4623 12.0003 48.4623 11.3628C48.4623 10.7253 48.6875 10.3877 49.1378 10.2002C49.3254 10.1252 53.1153 9.11273 55.6669 8.47522C57.1304 8.10022 58.6688 8.36272 59.9447 9.18773C62.6839 10.9503 67.1868 13.9503 67.2243 13.9878C68.0874 14.4753 68.8754 14.4003 69.1756 14.3628C70.6765 14.1378 71.8022 12.9753 71.8022 11.4753C71.8022 9.97524 71.3895 9.67524 70.639 9.11273C70.0761 8.70022 62.6464 3.75016 59.0066 1.35013C57.7307 0.525116 56.1923 0.262613 54.7288 0.637618C47.2991 2.36264 39.7568 4.20016 35.4415 4.20016H33.9406"></path>
<path stroke-miterlimit="10" stroke-width="0.762633" stroke="black" d="M73.4534 16.8746L84.2603 8.62451"></path>
<path stroke-miterlimit="10" stroke-width="0.762633" stroke="black" d="M35.4414 29.588L49.4003 26.438"></path>
<path stroke-miterlimit="10" stroke-width="0.762633" stroke="black" d="M74.1661 21.5625H79.5696"></path>
<path stroke-miterlimit="10" stroke-width="0.762633" stroke="black" d="M49.4005 21.5625H42.2334"></path>
<path stroke-miterlimit="10" stroke-width="0.762633" stroke="black" d="M61.7458 31.05C57.6181 31.05 54.241 27.7125 54.241 23.5499C54.241 19.3873 57.5806 16.0498 61.7458 16.0498C65.9109 16.0498 69.2506 19.3873 69.2506 23.5499C69.2506 27.7125 69.2506 24.3749 69.138 24.7874"></path>
</g>
<path fill="#4A4947" d="M9.89669 67.1992H8.98047V57.9595H9.89669L13.2648 66.1023L16.6329 57.9595H17.562V67.1992H16.6458V62.8117C16.6458 61.1986 16.6716 60.4888 16.7232 59.8565L13.7165 67.1992H12.826L9.81927 59.8952C9.87088 60.2436 9.89669 61.2631 9.89669 62.6697V67.1992ZM19.1734 64.0763C19.1734 62.1664 20.5155 60.7856 22.3479 60.7856C24.1804 60.7856 25.5224 62.1664 25.5224 64.0763C25.5224 65.9733 24.1804 67.3541 22.3479 67.3541C20.5155 67.3541 19.1734 65.9733 19.1734 64.0763ZM20.0767 64.0634C20.0767 65.5345 21.0058 66.554 22.3479 66.554C23.6771 66.554 24.6191 65.5345 24.6191 64.0634C24.6191 62.6181 23.6771 61.5857 22.3479 61.5857C21.0058 61.5857 20.0767 62.6181 20.0767 64.0634ZM29.3984 67.3541C27.5789 67.3541 26.5078 65.9604 26.5078 64.0892C26.5078 62.2051 27.5789 60.7856 29.4372 60.7856C30.4695 60.7856 31.2954 61.2373 31.7342 62.1406V57.7918H32.6246V67.1992H31.8503L31.76 65.9217C31.3212 66.8895 30.4437 67.3541 29.3984 67.3541ZM29.5533 66.5411C30.9212 66.5411 31.7213 65.5087 31.7213 64.0634C31.7213 62.631 30.9212 61.5857 29.5533 61.5857C28.1983 61.5857 27.4111 62.631 27.4111 64.0634C27.4111 65.5087 28.1983 66.5411 29.5533 66.5411ZM37.1023 67.3541C35.2698 67.3541 34.0439 66.0378 34.0439 64.0763C34.0439 62.1277 35.2569 60.7856 37.0378 60.7856C38.7283 60.7856 39.8768 61.9858 39.8768 63.7537V64.1925H34.9085C34.973 65.7152 35.7731 66.5927 37.1152 66.5927C38.1346 66.5927 38.7928 66.1539 39.0251 65.3281H39.8768C39.5412 66.6443 38.5734 67.3541 37.1023 67.3541ZM37.0378 61.547C35.8634 61.547 35.0892 62.3213 34.9343 63.5472H38.9863C38.9863 62.3471 38.2121 61.547 37.0378 61.547ZM44.5653 60.876V61.6761H44.0749C42.9264 61.6761 42.1908 62.4503 42.1908 63.6376V67.1992H41.3004V60.9534H42.1392L42.2037 61.9212C42.4489 61.2502 43.107 60.8114 43.9846 60.8114C44.1781 60.8114 44.3459 60.8244 44.5653 60.876ZM46.6394 67.1992H45.749V60.9534H46.5232L46.6523 62.0374C47.0652 61.2373 47.8911 60.7856 48.7944 60.7856C50.5107 60.7856 51.2205 61.8051 51.2205 63.3795V67.1992H50.3301V63.573C50.3301 62.1148 49.6719 61.5986 48.6396 61.5986C47.362 61.5986 46.6394 62.5278 46.6394 63.9344V67.1992ZM57.6969 67.1992H56.7678V57.9595H57.6969V62.0761H62.691V57.9595H63.6072V67.1992H62.691V62.9407H57.6969V67.1992ZM68.2926 67.3541C66.4601 67.3541 65.2342 66.0378 65.2342 64.0763C65.2342 62.1277 66.4472 60.7856 68.228 60.7856C69.9185 60.7856 71.067 61.9858 71.067 63.7537V64.1925H66.0988C66.1633 65.7152 66.9634 66.5927 68.3055 66.5927C69.3249 66.5927 69.9831 66.1539 70.2153 65.3281H71.067C70.7315 66.6443 69.7637 67.3541 68.2926 67.3541ZM68.228 61.547C67.0537 61.547 66.2794 62.3213 66.1246 63.5472H70.1766C70.1766 62.3471 69.4024 61.547 68.228 61.547ZM72.9294 59.2371C72.5681 59.2371 72.2713 58.9403 72.2713 58.579C72.2713 58.2176 72.5681 57.9079 72.9294 57.9079C73.2908 57.9079 73.6005 58.2176 73.6005 58.579C73.6005 58.9403 73.2908 59.2371 72.9294 59.2371ZM72.4907 67.1992V60.9534H73.3811V67.1992H72.4907ZM78.5028 60.876V61.6761H78.0124C76.8639 61.6761 76.1284 62.4503 76.1284 63.6376V67.1992H75.2379V60.9534H76.0767L76.1413 61.9212C76.3864 61.2502 77.0446 60.8114 77.9221 60.8114C78.1157 60.8114 78.2834 60.8244 78.5028 60.876ZM80.6156 67.1992H79.7252V57.7918H80.6156V67.1992ZM82.0706 64.0763C82.0706 62.1664 83.4127 60.7856 85.2451 60.7856C87.0776 60.7856 88.4197 62.1664 88.4197 64.0763C88.4197 65.9733 87.0776 67.3541 85.2451 67.3541C83.4127 67.3541 82.0706 65.9733 82.0706 64.0763ZM82.9739 64.0634C82.9739 65.5345 83.9031 66.554 85.2451 66.554C86.5743 66.554 87.5164 65.5345 87.5164 64.0634C87.5164 62.6181 86.5743 61.5857 85.2451 61.5857C83.9031 61.5857 82.9739 62.6181 82.9739 64.0634ZM89.4051 64.0763C89.4051 62.1664 90.7471 60.7856 92.5796 60.7856C94.412 60.7856 95.7541 62.1664 95.7541 64.0763C95.7541 65.9733 94.412 67.3541 92.5796 67.3541C90.7471 67.3541 89.4051 65.9733 89.4051 64.0763ZM90.3084 64.0634C90.3084 65.5345 91.2375 66.554 92.5796 66.554C93.9088 66.554 94.8508 65.5345 94.8508 64.0634C94.8508 62.6181 93.9088 61.5857 92.5796 61.5857C91.2375 61.5857 90.3084 62.6181 90.3084 64.0634ZM98.0687 67.1992H97.1783V60.9534H97.9525L98.0558 61.8438C98.3655 61.1857 99.0623 60.7856 99.9398 60.7856C100.921 60.7856 101.656 61.3018 101.953 62.1148C102.237 61.3018 102.998 60.7856 104.005 60.7856C105.36 60.7856 106.25 61.6632 106.25 63.1085V67.1992H105.386V63.2891C105.386 62.218 104.792 61.5857 103.837 61.5857C102.792 61.5857 102.172 62.3729 102.172 63.3407V67.1992H101.295V63.2762C101.295 62.218 100.688 61.5986 99.7463 61.5986C98.701 61.5986 98.0687 62.3729 98.0687 63.3278V67.1992ZM107.437 65.4442H108.288C108.288 66.1669 108.83 66.6185 109.708 66.6185C110.676 66.6185 111.243 66.2056 111.243 65.5345C111.243 65.0183 110.985 64.7215 110.25 64.5409L109.179 64.2699C108.095 63.9989 107.566 63.4311 107.566 62.5794C107.566 61.4825 108.482 60.7856 109.824 60.7856C111.14 60.7856 111.992 61.5083 112.031 62.6697H111.166C111.14 61.9471 110.637 61.5212 109.798 61.5212C108.921 61.5212 108.43 61.8954 108.43 62.5665C108.43 63.0439 108.766 63.3795 109.45 63.5472L110.521 63.8182C111.605 64.0892 112.095 64.5925 112.095 65.4958C112.095 66.6185 111.14 67.3541 109.721 67.3541C108.314 67.3541 107.437 66.6056 107.437 65.4442Z"></path>
<defs>
<clipPath id="clip0_639_333">
<rect transform="translate(33.7904)" fill="white" height="43.8756" width="52.9088"></rect>
</clipPath>
</defs>
</svg>
